<?xml version="1.0" standalone="no"?>
<!DOCTYPE svg PUBLIC "-//W3C//DTD SVG 20010904//EN"
 "http://www.w3.org/TR/2001/REC-SVG-20010904/DTD/svg10.dtd">
<svg version="1.0" xmlns="http://www.w3.org/2000/svg"
 width="512.000000pt" height="512.000000pt" viewBox="0 0 512.000000 512.000000"
 preserveAspectRatio="xMidYMid meet">

<g transform="translate(0.000000,512.000000) scale(0.100000,-0.100000)"
fill="#000000" stroke="none">
<path d="M1035 5105 c-208 -33 -405 -118 -572 -247 -84 -65 -212 -207 -272
-302 -96 -155 -156 -319 -180 -499 -15 -109 -15 -2885 0 -2994 37 -273 147
-498 339 -694 176 -179 363 -284 620 -345 70 -17 171 -18 1535 -22 1012 -2
1486 0 1545 8 273 35 504 147 701 340 155 152 249 306 314 510 57 182 56 149
52 1748 -3 1372 -4 1472 -21 1542 -60 249 -166 442 -335 611 -174 173 -360
275 -611 335 -70 17 -171 18 -1555 20 -1163 2 -1497 0 -1560 -11z m2560 -1265
c166 -14 358 -40 369 -50 4 -5 5 -142 1 -308 l-7 -299 -89 28 c-155 50 -304
73 -489 73 -178 1 -242 -11 -310 -56 -72 -48 -101 -134 -64 -186 39 -56 131
-79 446 -112 208 -21 351 -47 458 -81 83 -27 218 -98 274 -144 95 -78 171
-205 209 -349 28 -108 30 -336 4 -441 -99 -394 -462 -648 -1007 -705 -476 -49
-1000 97 -1263 352 l-66 63 180 240 c99 132 184 239 189 238 5 -2 33 -18 62
-37 185 -118 384 -182 593 -192 191 -9 311 24 407 114 56 53 83 119 76 193 -6
63 -41 107 -115 146 -85 45 -130 57 -428 118 -407 82 -549 135 -675 252 -119
111 -167 238 -156 419 20 346 235 572 641 674 60 15 157 33 215 39 58 6 119
13 135 15 68 7 298 5 410 -4z"/>
</g>
</svg>
