<?xml version="1.0" standalone="no"?>
<!DOCTYPE svg PUBLIC "-//W3C//DTD SVG 20010904//EN"
 "http://www.w3.org/TR/2001/REC-SVG-20010904/DTD/svg10.dtd">
<svg version="1.0" xmlns="http://www.w3.org/2000/svg"
 width="512.000000pt" height="512.000000pt" viewBox="0 0 512.000000 512.000000"
 preserveAspectRatio="xMidYMid meet">

<g transform="translate(0.000000,512.000000) scale(0.100000,-0.100000)"
fill="#000000" stroke="none">
<path d="M1053 5110 c-172 -23 -366 -98 -519 -200 -101 -68 -256 -223 -324
-324 -75 -113 -137 -248 -173 -384 l-32 -117 0 -1525 0 -1525 32 -117 c60
-221 162 -398 322 -559 197 -198 437 -315 713 -349 67 -8 507 -10 1548 -8
1602 4 1488 0 1680 65 344 117 636 409 753 753 65 192 61 78 65 1680 2 1041 0
1481 -8 1548 -34 278 -149 513 -349 713 -160 160 -338 262 -559 322 l-117 32
-1485 1 c-817 1 -1513 -2 -1547 -6z m602 -1285 c263 -31 487 -90 681 -180 l91
-42 70 47 c273 183 749 242 1338 164 66 -9 124 -20 129 -24 4 -5 5 -142 1
-308 l-7 -299 -89 28 c-155 50 -304 73 -489 73 -178 1 -242 -11 -310 -56 -72
-48 -101 -134 -64 -186 39 -56 131 -79 446 -112 208 -21 351 -47 458 -81 83
-27 218 -98 274 -144 95 -78 171 -205 209 -349 28 -108 30 -336 4 -441 -99
-394 -462 -648 -1007 -705 -445 -46 -946 81 -1221 311 l-46 39 -104 -40 c-197
-74 -367 -115 -599 -146 -133 -17 -405 -22 -529 -9 l-74 7 6 407 c4 223 10
776 13 1229 6 743 9 822 23 823 238 21 594 18 796 -6z"/>
<path d="M1506 3169 c-5 -34 -46 -939 -46 -1011 l0 -38 49 0 c70 0 211 27 294
55 102 36 171 80 252 160 251 250 189 630 -128 785 -106 52 -178 70 -309 77
l-107 6 -5 -34z"/>
<path d="M2966 2389 c-38 -125 -115 -262 -209 -372 -27 -32 -48 -59 -46 -61 2
-1 24 -10 48 -20 145 -57 386 -81 520 -52 95 20 154 49 213 104 82 76 102 200
45 275 -27 36 -112 85 -192 111 -43 14 -332 76 -354 76 -4 0 -15 -27 -25 -61z"/>
</g>
</svg>
